<?xml version="1.0" encoding="UTF-8" standalone="no"?>
<svg
   fill="#ffffff"
   viewBox="0 0 21 21"
   id="cross-circle"
   data-name="Flat Color"
   class="icon flat-color"
   stroke="#ffffff"
   version="1.1"
   sodipodi:docname="refuser.svg"
   width="21"
   height="21"
   inkscape:version="1.2.2 (b0a8486541, 2022-12-01)"
   xmlns:inkscape="http://www.inkscape.org/namespaces/inkscape"
   xmlns:sodipodi="http://sodipodi.sourceforge.net/DTD/sodipodi-0.dtd"
   xmlns="http://www.w3.org/2000/svg"
   xmlns:svg="http://www.w3.org/2000/svg">
  <defs
     id="defs10" />
  <sodipodi:namedview
     id="namedview8"
     pagecolor="#505050"
     bordercolor="#eeeeee"
     borderopacity="1"
     inkscape:showpageshadow="0"
     inkscape:pageopacity="0"
     inkscape:pagecheckerboard="0"
     inkscape:deskcolor="#d1d1d1"
     showgrid="false"
     inkscape:zoom="34.75"
     inkscape:cx="0.4028777"
     inkscape:cy="10.503597"
     inkscape:window-width="1920"
     inkscape:window-height="1008"
     inkscape:window-x="0"
     inkscape:window-y="0"
     inkscape:window-maximized="1"
     inkscape:current-layer="cross-circle" />
  <g
     id="SVGRepo_bgCarrier"
     stroke-width="0"
     transform="translate(-1.5,-1.5)" />
  <g
     id="SVGRepo_tracerCarrier"
     stroke-linecap="round"
     stroke-linejoin="round"
     transform="translate(-1.5,-1.5)" />
  <g
     id="SVGRepo_iconCarrier"
     transform="translate(-1.5,-1.5)">
    <circle
       id="primary"
       cx="12"
       cy="12"
       r="10"
       style="fill:#ff1400;stroke:#ff1400;stroke-opacity:1" />
    <path
       id="secondary"
       d="m 13.41,12 2.3,-2.29 A 1.0040916,1.0040916 0 0 0 14.29,8.29 L 12,10.59 9.71,8.29 A 1.0040916,1.0040916 0 0 0 8.29,9.71 l 2.3,2.29 -2.3,2.29 a 1,1 0 0 0 0,1.42 1,1 0 0 0 1.42,0 l 2.29,-2.3 2.29,2.3 a 1,1 0 0 0 1.42,0 1,1 0 0 0 0,-1.42 z" />
  </g>
</svg>
