<?xml version="1.0" encoding="UTF-8" standalone="no"?>
<svg
   width="250px"
   height="250px"
   viewBox="0 0 283.46 283.46"
   version="1.1"
   id="svg7750"
   sodipodi:docname="symbole_metro_RVB.svg"
   inkscape:version="1.2.2 (b0a8486541, 2022-12-01)"
   xmlns:inkscape="http://www.inkscape.org/namespaces/inkscape"
   xmlns:sodipodi="http://sodipodi.sourceforge.net/DTD/sodipodi-0.dtd"
   xmlns="http://www.w3.org/2000/svg"
   xmlns:svg="http://www.w3.org/2000/svg">
  <defs
     id="defs7754" />
  <sodipodi:namedview
     id="namedview7752"
     pagecolor="#505050"
     bordercolor="#eeeeee"
     borderopacity="1"
     inkscape:showpageshadow="0"
     inkscape:pageopacity="0"
     inkscape:pagecheckerboard="0"
     inkscape:deskcolor="#505050"
     showgrid="false"
     inkscape:zoom="1.6091614"
     inkscape:cx="212.53306"
     inkscape:cy="162.19628"
     inkscape:window-width="1920"
     inkscape:window-height="1008"
     inkscape:window-x="0"
     inkscape:window-y="0"
     inkscape:window-maximized="1"
     inkscape:current-layer="svg7750" />
  <title
     id="title7744">Paris transit icons - Paris Métro</title>
  <g
     id="g8242">
    <g
       id="path7447">
      <path
         style="color:#000000;fill:#ffffff;stroke-width:18.4294;-inkscape-stroke:none"
         d="M 274.24544,141.73 A 132.51544,132.51544 0 0 1 141.73,274.24544 132.51544,132.51544 0 0 1 9.2145538,141.73 132.51544,132.51544 0 0 1 141.73,9.2145538 132.51544,132.51544 0 0 1 274.24544,141.73 Z"
         id="path8234" />
      <path
         style="color:#000000;fill:#000000;-inkscape-stroke:none"
         d="M 141.73047,0 C 63.564296,0 0,63.564296 0,141.73047 c 0,78.16617 63.564296,141.73047 141.73047,141.73047 78.16617,0 141.73047,-63.5643 141.73047,-141.73047 C 283.46094,63.564296 219.89664,0 141.73047,0 Z m 0,18.429687 c 68.20619,10e-7 123.30078,55.094586 123.30078,123.300783 0,68.20619 -55.09459,123.30078 -123.30078,123.30078 -68.206197,0 -123.300783,-55.09459 -123.300783,-123.30078 10e-7,-68.206197 55.094586,-123.300783 123.300783,-123.300783 z"
         id="path8236" />
    </g>
    <path
       fill="#25303B"
       d="M 212.25,205.15 V 81.5 c 0,-7.09 -3.9,-14.53 -15.6,-14.53 -8.85,0 -12.4,3.9 -16.29,11.69 l -38.27,79.73 h -0.35 L 103.11,78.66 C 99.21,70.87 95.67,67 86.81,67 75.12,67 71.22,74.41 71.22,81.5 v 123.65 c 0,6.74 5.32,10.64 11.7,10.64 5.66,0 12,-3.9 12,-10.64 V 113 h 0.36 l 35.12,71.6 c 2.47,5 5.67,7.8 11.34,7.8 5.67,0 8.85,-2.84 11.33,-7.8 L 188.15,113 h 0.36 v 92.12 c 0,6.74 6.37,10.64 12.05,10.64 6.37,0 11.69,-3.9 11.69,-10.64"
       id="path7748"
       style="fill:#000000;fill-opacity:1" />
  </g>
</svg>
